<?xml version="1.0" encoding="UTF-8" ?>
<!DOCTYPE svg PUBLIC "-//W3C//DTD SVG 1.1//EN" "http://www.w3.org/Graphics/SVG/1.1/DTD/svg11.dtd">
<svg width="757pt" height="99pt" viewBox="0 0 757 99" version="1.1" xmlns="http://www.w3.org/2000/svg">
<path fill="#a100ff" d=" M 0.00 0.00 L 3.00 0.00 C 3.00 33.00 3.00 66.00 3.00 99.00 L 0.00 99.00 L 0.00 0.00 Z" />
<path fill="#000000" d=" M 3.00 0.00 L 4.00 0.00 C 4.00 33.00 4.00 66.00 4.00 99.00 L 3.00 99.00 C 3.00 66.00 3.00 33.00 3.00 0.00 Z" />
<path fill="#9f00ff" d=" M 4.00 0.00 L 8.00 0.00 C 8.00 33.00 8.00 66.00 8.00 99.00 L 4.00 99.00 C 4.00 66.00 4.00 33.00 4.00 0.00 Z" />
<path fill="#000000" d=" M 8.00 0.00 L 10.00 0.00 C 10.00 33.00 10.00 66.00 10.00 99.00 L 8.00 99.00 C 8.00 66.00 8.00 33.00 8.00 0.00 Z" />
<path fill="#9400ff" d=" M 10.00 0.00 L 13.99 0.00 C 13.99 33.00 13.99 66.00 13.99 99.00 L 10.00 99.00 C 10.00 66.00 10.00 33.00 10.00 0.00 Z" />
<path fill="#000000" d=" M 13.99 0.00 L 15.00 0.00 C 15.00 33.00 15.00 66.00 15.00 99.00 L 13.99 99.00 C 13.99 66.00 13.99 33.00 13.99 0.00 Z" />
<path fill="#8e00ff" d=" M 15.00 0.00 L 20.99 0.00 C 20.99 33.00 20.98 66.00 20.99 99.00 L 15.00 99.00 C 15.00 66.00 15.00 33.00 15.00 0.00 Z" />
<path fill="#000000" d=" M 20.99 0.00 L 26.00 0.00 C 26.00 33.00 26.00 66.00 26.00 99.00 L 20.99 99.00 C 20.98 66.00 20.99 33.00 20.99 0.00 Z" />
<path fill="#7e00ff" d=" M 26.00 0.00 L 28.00 0.00 C 28.00 33.00 28.00 66.00 28.00 99.00 L 26.00 99.00 C 26.00 66.00 26.00 33.00 26.00 0.00 Z" />
<path fill="#000000" d=" M 28.00 0.00 L 30.00 0.00 C 30.00 33.00 30.00 66.00 30.00 99.00 L 28.00 99.00 C 28.00 66.00 28.00 33.00 28.00 0.00 Z" />
<path fill="#7000ff" d=" M 30.00 0.00 L 32.00 0.00 C 32.00 33.00 32.00 66.00 32.00 99.00 L 30.00 99.00 C 30.00 66.00 30.00 33.00 30.00 0.00 Z" />
<path fill="#000000" d=" M 32.00 0.00 L 33.00 0.00 C 33.00 33.00 33.00 66.00 33.00 99.00 L 32.00 99.00 C 32.00 66.00 32.00 33.00 32.00 0.00 Z" />
<path fill="#6f00ff" d=" M 33.00 0.00 L 40.99 0.00 C 40.99 33.00 40.99 66.00 40.99 99.00 L 33.00 99.00 C 33.00 66.00 33.00 33.00 33.00 0.00 Z" />
<path fill="#000000" d=" M 40.99 0.00 L 44.00 0.00 C 44.00 33.00 44.00 66.00 44.00 99.00 L 40.99 99.00 C 40.99 66.00 40.99 33.00 40.99 0.00 Z" />
<path fill="#5e00ff" d=" M 44.00 0.00 L 49.02 0.00 C 49.04 33.00 49.06 66.00 49.01 99.00 L 44.00 99.00 C 44.00 66.00 44.00 33.00 44.00 0.00 Z" />
<path fill="#4f00ff" d=" M 49.02 0.00 L 61.98 0.00 C 61.98 33.00 61.97 66.00 61.98 99.00 L 49.01 99.00 C 49.06 66.00 49.04 33.00 49.02 0.00 Z" />
<path fill="#000000" d=" M 61.98 0.00 L 63.00 0.00 C 63.00 33.00 63.00 66.00 63.00 99.00 L 61.98 99.00 C 61.97 66.00 61.98 33.00 61.98 0.00 Z" />
<path fill="#3e00ff" d=" M 63.00 0.00 L 68.01 0.00 C 68.01 33.00 68.02 66.00 68.01 99.00 L 63.00 99.00 C 63.00 66.00 63.00 33.00 63.00 0.00 Z" />
<path fill="#3000ff" d=" M 68.01 0.00 L 78.00 0.00 C 78.00 33.00 78.02 66.00 78.00 99.00 L 68.01 99.00 C 68.02 66.00 68.01 33.00 68.01 0.00 Z" />
<path fill="#1f00ff" d=" M 78.00 0.00 L 85.00 0.00 C 85.00 33.00 85.00 66.00 85.00 99.00 L 78.00 99.00 C 78.02 66.00 78.00 33.00 78.00 0.00 Z" />
<path fill="#000000" d=" M 85.00 0.00 L 90.00 0.00 C 90.00 33.00 90.00 66.00 90.00 99.00 L 85.00 99.00 C 85.00 66.00 85.00 33.00 85.00 0.00 Z" />
<path fill="#1000ff" d=" M 90.00 0.00 L 92.00 0.00 C 92.00 33.00 92.00 66.00 92.00 99.00 L 90.00 99.00 C 90.00 66.00 90.00 33.00 90.00 0.00 Z" />
<path fill="#000000" d=" M 92.00 0.00 L 94.00 0.00 C 94.00 33.00 94.00 66.00 94.00 99.00 L 92.00 99.00 C 92.00 66.00 92.00 33.00 92.00 0.00 Z" />
<path fill="#0f00ff" d=" M 94.00 0.00 L 100.00 0.00 C 100.00 33.00 100.00 66.00 100.00 99.00 L 94.00 99.00 C 94.00 66.00 94.00 33.00 94.00 0.00 Z" />
<path fill="#000000" d=" M 100.00 0.00 L 102.00 0.00 C 102.00 33.00 102.00 66.00 102.00 99.00 L 100.00 99.00 C 100.00 66.00 100.00 33.00 100.00 0.00 Z" />
<path fill="#000fff" d=" M 102.00 0.00 L 111.00 0.00 C 111.00 33.00 111.00 66.00 111.00 99.00 L 102.00 99.00 C 102.00 66.00 102.00 33.00 102.00 0.00 Z" />
<path fill="#000000" d=" M 111.00 0.00 L 117.00 0.00 C 117.00 33.00 117.00 66.00 117.00 99.00 L 111.00 99.00 C 111.00 66.00 111.00 33.00 111.00 0.00 Z" />
<path fill="#0023ff" d=" M 117.00 0.00 L 126.00 0.00 C 126.00 33.00 126.00 66.00 126.00 99.00 L 117.00 99.00 C 117.00 66.00 117.00 33.00 117.00 0.00 Z" />
<path fill="#000000" d=" M 126.00 0.00 L 135.00 0.00 C 135.00 33.00 135.00 66.00 135.00 99.00 L 126.00 99.00 C 126.00 66.00 126.00 33.00 126.00 0.00 Z" />
<path fill="#0042ff" d=" M 135.00 0.00 L 136.00 0.00 C 136.00 33.00 136.00 66.00 136.00 99.00 L 135.00 99.00 C 135.00 66.00 135.00 33.00 135.00 0.00 Z" />
<path fill="#000000" d=" M 136.00 0.00 L 165.00 0.00 C 165.00 33.00 165.00 66.00 165.00 99.00 L 136.00 99.00 C 136.00 66.00 136.00 33.00 136.00 0.00 Z" />
<path fill="#007bff" d=" M 165.00 0.00 L 166.00 0.00 C 166.00 33.00 166.00 66.00 166.00 99.00 L 165.00 99.00 C 165.00 66.00 165.00 33.00 165.00 0.00 Z" />
<path fill="#000000" d=" M 166.00 0.00 L 188.00 0.00 C 188.00 33.00 188.00 66.00 188.00 99.00 L 166.00 99.00 C 166.00 66.00 166.00 33.00 166.00 0.00 Z" />
<path fill="#00adff" d=" M 188.00 0.00 L 189.00 0.00 C 189.00 33.00 189.00 66.00 189.00 99.00 L 188.00 99.00 C 188.00 66.00 188.00 33.00 188.00 0.00 Z" />
<path fill="#000000" d=" M 189.00 0.00 L 219.00 0.00 C 219.00 33.00 219.00 66.00 219.00 99.00 L 189.00 99.00 C 189.00 66.00 189.00 33.00 189.00 0.00 Z" />
<path fill="#00efff" d=" M 219.00 0.00 L 220.00 0.00 C 220.00 33.00 220.00 66.00 220.00 99.00 L 219.00 99.00 C 219.00 66.00 219.00 33.00 219.00 0.00 Z" />
<path fill="#000000" d=" M 220.00 0.00 L 222.00 0.00 C 222.00 33.00 222.00 66.00 222.00 99.00 L 220.00 99.00 C 220.00 66.00 220.00 33.00 220.00 0.00 Z" />
<path fill="#00f0ff" d=" M 222.00 0.00 L 225.00 0.00 C 225.00 33.00 225.00 66.00 225.00 99.00 L 222.00 99.00 C 222.00 66.00 222.00 33.00 222.00 0.00 Z" />
<path fill="#000000" d=" M 225.00 0.00 L 226.00 0.00 C 226.00 33.00 226.00 66.00 226.00 99.00 L 225.00 99.00 C 225.00 66.00 225.00 33.00 225.00 0.00 Z" />
<path fill="#00ffff" d=" M 226.00 0.00 L 229.00 0.00 C 229.00 33.00 229.00 66.00 229.00 99.00 L 226.00 99.00 C 226.00 66.00 226.00 33.00 226.00 0.00 Z" />
<path fill="#000000" d=" M 229.00 0.00 L 230.00 0.00 C 230.00 33.00 230.00 66.00 230.00 99.00 L 229.00 99.00 C 229.00 66.00 229.00 33.00 229.00 0.00 Z" />
<path fill="#00ffff" d=" M 230.00 0.00 L 231.00 0.00 C 231.00 33.00 231.00 66.00 231.00 99.00 L 230.00 99.00 C 230.00 66.00 230.00 33.00 230.00 0.00 Z" />
<path fill="#000000" d=" M 231.00 0.00 L 234.00 0.00 C 234.00 33.00 234.00 66.00 234.00 99.00 L 231.00 99.00 C 231.00 66.00 231.00 33.00 231.00 0.00 Z" />
<path fill="#00ffe7" d=" M 234.00 0.00 L 237.00 0.00 C 237.00 33.00 237.00 66.00 237.00 99.00 L 234.00 99.00 C 234.00 66.00 234.00 33.00 234.00 0.00 Z" />
<path fill="#000000" d=" M 237.00 0.00 L 243.00 0.00 C 243.00 33.00 243.00 66.00 243.00 99.00 L 237.00 99.00 C 237.00 66.00 237.00 33.00 237.00 0.00 Z" />
<path fill="#00ffb5" d=" M 243.00 0.00 L 246.00 0.00 C 246.00 33.00 246.00 66.00 246.00 99.00 L 243.00 99.00 C 243.00 66.00 243.00 33.00 243.00 0.00 Z" />
<path fill="#000000" d=" M 246.00 0.00 L 255.00 0.00 C 255.00 33.00 254.99 66.00 255.00 99.00 L 246.00 99.00 C 246.00 66.00 246.00 33.00 246.00 0.00 Z" />
<path fill="#00ff75" d=" M 255.00 0.00 L 259.99 0.00 C 259.99 33.00 259.98 66.00 259.99 99.00 L 255.00 99.00 C 254.99 66.00 255.00 33.00 255.00 0.00 Z" />
<path fill="#000000" d=" M 259.99 0.00 L 263.00 0.00 C 263.00 33.00 263.00 66.00 263.00 99.00 L 259.99 99.00 C 259.98 66.00 259.99 33.00 259.99 0.00 Z" />
<path fill="#00ff52" d=" M 263.00 0.00 L 264.00 0.00 C 264.00 33.00 264.00 66.00 264.00 99.00 L 263.00 99.00 C 263.00 66.00 263.00 33.00 263.00 0.00 Z" />
<path fill="#000000" d=" M 264.00 0.00 L 266.00 0.00 C 266.00 33.00 266.00 66.00 266.00 99.00 L 264.00 99.00 C 264.00 66.00 264.00 33.00 264.00 0.00 Z" />
<path fill="#00ff40" d=" M 266.00 0.00 L 269.00 0.00 C 269.00 33.00 269.00 66.00 269.00 99.00 L 266.00 99.00 C 266.00 66.00 266.00 33.00 266.00 0.00 Z" />
<path fill="#000000" d=" M 269.00 0.00 L 274.00 0.00 C 274.00 33.00 274.00 66.00 274.00 99.00 L 269.00 99.00 C 269.00 66.00 269.00 33.00 269.00 0.00 Z" />
<path fill="#00ff18" d=" M 274.00 0.00 L 275.00 0.00 C 275.00 33.00 275.00 66.00 275.00 99.00 L 274.00 99.00 C 274.00 66.00 274.00 33.00 274.00 0.00 Z" />
<path fill="#000000" d=" M 275.00 0.00 L 283.00 0.00 C 283.00 33.00 283.00 66.00 283.00 99.00 L 275.00 99.00 C 275.00 66.00 275.00 33.00 275.00 0.00 Z" />
<path fill="#0eff00" d=" M 283.00 0.00 L 285.00 0.00 C 285.00 33.00 285.00 66.00 285.00 99.00 L 283.00 99.00 C 283.00 66.00 283.00 33.00 283.00 0.00 Z" />
<path fill="#000000" d=" M 285.00 0.00 L 289.00 0.00 C 289.00 33.00 289.00 66.00 289.00 99.00 L 285.00 99.00 C 285.00 66.00 285.00 33.00 285.00 0.00 Z" />
<path fill="#0eff00" d=" M 289.00 0.00 L 290.00 0.00 C 290.00 33.00 290.00 66.00 290.00 99.00 L 289.00 99.00 C 289.00 66.00 289.00 33.00 289.00 0.00 Z" />
<path fill="#000000" d=" M 290.00 0.00 L 291.00 0.00 C 291.00 33.00 291.00 66.00 291.00 99.00 L 290.00 99.00 C 290.00 66.00 290.00 33.00 290.00 0.00 Z" />
<path fill="#0eff00" d=" M 291.00 0.00 L 293.00 0.00 C 293.00 33.00 293.00 66.00 293.00 99.00 L 291.00 99.00 C 291.00 66.00 291.00 33.00 291.00 0.00 Z" />
<path fill="#000000" d=" M 293.00 0.00 L 294.00 0.00 C 294.00 33.00 294.00 66.00 294.00 99.00 L 293.00 99.00 C 293.00 66.00 293.00 33.00 293.00 0.00 Z" />
<path fill="#10ff00" d=" M 294.00 0.00 L 295.00 0.00 C 295.00 33.00 295.00 66.00 295.00 99.00 L 294.00 99.00 C 294.00 66.00 294.00 33.00 294.00 0.00 Z" />
<path fill="#000000" d=" M 295.00 0.00 L 296.01 0.00 C 296.01 33.00 296.01 66.00 296.00 99.00 L 295.00 99.00 C 295.00 66.00 295.00 33.00 295.00 0.00 Z" />
<path fill="#1dff00" d=" M 296.01 0.00 L 301.00 0.00 C 301.00 33.00 301.00 66.00 301.00 99.00 L 296.00 99.00 C 296.01 66.00 296.01 33.00 296.01 0.00 Z" />
<path fill="#000000" d=" M 301.00 0.00 L 304.00 0.00 C 304.00 33.00 304.00 66.00 304.00 99.00 L 301.00 99.00 C 301.00 66.00 301.00 33.00 301.00 0.00 Z" />
<path fill="#20ff00" d=" M 304.00 0.00 L 308.00 0.00 C 308.00 33.00 308.00 66.00 308.00 99.00 L 304.00 99.00 C 304.00 66.00 304.00 33.00 304.00 0.00 Z" />
<path fill="#000000" d=" M 308.00 0.00 L 310.00 0.00 C 310.01 33.00 310.00 66.00 310.00 99.00 L 308.00 99.00 C 308.00 66.00 308.00 33.00 308.00 0.00 Z" />
<path fill="#2fff00" d=" M 310.00 0.00 L 316.00 0.00 C 316.00 33.00 316.00 66.00 316.00 99.00 L 310.00 99.00 C 310.00 66.00 310.01 33.00 310.00 0.00 Z" />
<path fill="#000000" d=" M 316.00 0.00 L 323.00 0.00 C 323.00 33.00 323.00 66.00 323.00 99.00 L 316.00 99.00 C 316.00 66.00 316.00 33.00 316.00 0.00 Z" />
<path fill="#3eff00" d=" M 323.00 0.00 L 326.00 0.00 C 326.00 33.00 326.00 66.00 326.00 99.00 L 323.00 99.00 C 323.00 66.00 323.00 33.00 323.00 0.00 Z" />
<path fill="#000000" d=" M 326.00 0.00 L 327.00 0.00 C 327.00 33.00 327.00 66.00 327.00 99.00 L 326.00 99.00 C 326.00 66.00 326.00 33.00 326.00 0.00 Z" />
<path fill="#41ff00" d=" M 327.00 0.00 L 328.00 0.00 C 328.00 33.00 328.00 66.00 328.00 99.00 L 327.00 99.00 C 327.00 66.00 327.00 33.00 327.00 0.00 Z" />
<path fill="#000000" d=" M 328.00 0.00 L 332.00 0.00 C 332.00 33.00 332.00 66.00 332.00 99.00 L 328.00 99.00 C 328.00 66.00 328.00 33.00 328.00 0.00 Z" />
<path fill="#4eff00" d=" M 332.00 0.00 L 333.00 0.00 C 333.00 33.00 333.00 66.00 333.00 99.00 L 332.00 99.00 C 332.00 66.00 332.00 33.00 332.00 0.00 Z" />
<path fill="#000000" d=" M 333.00 0.00 L 338.00 0.00 C 338.00 33.00 338.00 66.00 338.00 99.00 L 333.00 99.00 C 333.00 66.00 333.00 33.00 333.00 0.00 Z" />
<path fill="#50ff00" d=" M 338.00 0.00 L 344.00 0.00 C 344.00 33.00 344.00 66.00 344.00 99.00 L 338.00 99.00 C 338.00 66.00 338.00 33.00 338.00 0.00 Z" />
<path fill="#000000" d=" M 344.00 0.00 L 348.00 0.00 C 348.00 33.00 348.00 66.00 348.00 99.00 L 344.00 99.00 C 344.00 66.00 344.00 33.00 344.00 0.00 Z" />
<path fill="#60ff00" d=" M 348.00 0.00 L 352.00 0.00 C 352.00 33.00 352.00 66.00 352.00 99.00 L 348.00 99.00 C 348.00 66.00 348.00 33.00 348.00 0.00 Z" />
<path fill="#000000" d=" M 352.00 0.00 L 353.00 0.00 C 353.00 33.00 353.00 66.00 353.00 99.00 L 352.00 99.00 C 352.00 66.00 352.00 33.00 352.00 0.00 Z" />
<path fill="#63ff00" d=" M 353.00 0.00 L 354.00 0.00 C 354.00 33.00 354.00 66.00 354.00 99.00 L 353.00 99.00 C 353.00 66.00 353.00 33.00 353.00 0.00 Z" />
<path fill="#000000" d=" M 354.00 0.00 L 355.01 0.00 C 355.01 33.00 355.01 66.00 355.01 99.00 L 354.00 99.00 C 354.00 66.00 354.00 33.00 354.00 0.00 Z" />
<path fill="#6fff00" d=" M 355.01 0.00 L 362.00 0.00 C 362.00 33.00 362.00 66.00 362.00 99.00 L 355.01 99.00 C 355.01 66.00 355.01 33.00 355.01 0.00 Z" />
<path fill="#000000" d=" M 362.00 0.00 L 363.02 0.00 C 363.03 33.00 363.03 66.00 363.02 99.00 L 362.00 99.00 C 362.00 66.00 362.00 33.00 362.00 0.00 Z" />
<path fill="#7eff00" d=" M 363.02 0.00 L 373.00 0.00 C 373.00 33.00 373.00 66.00 373.00 99.00 L 363.02 99.00 C 363.03 66.00 363.03 33.00 363.02 0.00 Z" />
<path fill="#000000" d=" M 373.00 0.00 L 382.00 0.00 C 382.00 33.00 382.00 66.00 382.00 99.00 L 373.00 99.00 C 373.00 66.00 373.00 33.00 373.00 0.00 Z" />
<path fill="#90ff00" d=" M 382.00 0.00 L 385.00 0.00 C 385.00 33.00 385.00 66.00 385.00 99.00 L 382.00 99.00 C 382.00 66.00 382.00 33.00 382.00 0.00 Z" />
<path fill="#000000" d=" M 385.00 0.00 L 400.00 0.00 C 400.00 33.00 400.00 66.00 400.00 99.00 L 385.00 99.00 C 385.00 66.00 385.00 33.00 385.00 0.00 Z" />
<path fill="#afff00" d=" M 400.00 0.00 L 402.00 0.00 C 402.00 33.00 402.00 66.00 402.00 99.00 L 400.00 99.00 C 400.00 66.00 400.00 33.00 400.00 0.00 Z" />
<path fill="#000000" d=" M 402.00 0.00 L 405.00 0.00 C 405.00 33.00 405.00 66.00 405.00 99.00 L 402.00 99.00 C 402.00 66.00 402.00 33.00 402.00 0.00 Z" />
<path fill="#b1ff00" d=" M 405.00 0.00 L 407.00 0.00 C 407.00 33.00 407.00 66.00 407.00 99.00 L 405.00 99.00 C 405.00 66.00 405.00 33.00 405.00 0.00 Z" />
<path fill="#000000" d=" M 407.00 0.00 L 411.00 0.00 C 411.00 33.00 411.01 66.00 411.00 99.00 L 407.00 99.00 C 407.00 66.00 407.00 33.00 407.00 0.00 Z" />
<path fill="#beff00" d=" M 411.00 0.00 L 415.00 0.00 C 415.00 33.00 415.00 66.00 415.00 99.00 L 411.00 99.00 C 411.01 66.00 411.00 33.00 411.00 0.00 Z" />
<path fill="#000000" d=" M 415.00 0.00 L 424.00 0.00 C 424.00 33.00 424.00 66.00 424.00 99.00 L 415.00 99.00 C 415.00 66.00 415.00 33.00 415.00 0.00 Z" />
<path fill="#ceff00" d=" M 424.00 0.00 L 425.00 0.00 C 425.00 33.00 425.00 66.00 425.00 99.00 L 424.00 99.00 C 424.00 66.00 424.00 33.00 424.00 0.00 Z" />
<path fill="#000000" d=" M 425.00 0.00 L 450.00 0.00 C 450.00 33.00 450.00 66.00 450.00 99.00 L 425.00 99.00 C 425.00 66.00 425.00 33.00 425.00 0.00 Z" />
<path fill="#f7ff00" d=" M 450.00 0.00 L 451.00 0.00 C 451.00 33.00 451.00 66.00 451.00 99.00 L 450.00 99.00 C 450.00 66.00 450.00 33.00 450.00 0.00 Z" />
<path fill="#000000" d=" M 451.00 0.00 L 475.00 0.00 C 475.00 33.00 475.00 66.00 475.00 99.00 L 451.00 99.00 C 451.00 66.00 451.00 33.00 451.00 0.00 Z" />
<path fill="#ffdf00" d=" M 475.00 0.00 L 476.00 0.00 C 476.00 33.00 476.00 66.00 476.00 99.00 L 475.00 99.00 C 475.00 66.00 475.00 33.00 475.00 0.00 Z" />
<path fill="#000000" d=" M 476.00 0.00 L 488.00 0.00 C 488.00 33.00 488.00 66.00 488.00 99.00 L 476.00 99.00 C 476.00 66.00 476.00 33.00 476.00 0.00 Z" />
<path fill="#ffd600" d=" M 488.00 0.00 L 489.00 0.00 C 489.00 33.00 489.00 66.00 489.00 99.00 L 488.00 99.00 C 488.00 66.00 488.00 33.00 488.00 0.00 Z" />
<path fill="#000000" d=" M 489.00 0.00 L 507.00 0.00 C 507.00 33.00 507.00 66.00 507.00 99.00 L 489.00 99.00 C 489.00 66.00 489.00 33.00 489.00 0.00 Z" />
<path fill="#ffb500" d=" M 507.00 0.00 L 508.00 0.00 C 508.00 33.00 508.00 66.00 508.00 99.00 L 507.00 99.00 C 507.00 66.00 507.00 33.00 507.00 0.00 Z" />
<path fill="#000000" d=" M 508.00 0.00 L 527.00 0.00 C 527.00 33.00 527.00 66.00 527.00 99.00 L 508.00 99.00 C 508.00 66.00 508.00 33.00 508.00 0.00 Z" />
<path fill="#ff8f00" d=" M 527.00 0.00 L 528.00 0.00 C 528.00 33.00 528.00 66.00 528.00 99.00 L 527.00 99.00 C 527.00 66.00 527.00 33.00 527.00 0.00 Z" />
<path fill="#000000" d=" M 528.00 0.00 L 536.00 0.00 C 536.00 33.00 536.00 66.00 536.00 99.00 L 528.00 99.00 C 528.00 66.00 528.00 33.00 528.00 0.00 Z" />
<path fill="#ff8100" d=" M 536.00 0.00 L 537.00 0.00 C 537.00 33.00 537.00 66.00 537.00 99.00 L 536.00 99.00 C 536.00 66.00 536.00 33.00 536.00 0.00 Z" />
<path fill="#000000" d=" M 537.00 0.00 L 545.00 0.00 C 545.00 33.00 545.00 66.00 545.00 99.00 L 537.00 99.00 C 537.00 66.00 537.00 33.00 537.00 0.00 Z" />
<path fill="#ff7f00" d=" M 545.00 0.00 L 546.00 0.00 C 546.00 33.00 546.00 66.00 546.00 99.00 L 545.00 99.00 C 545.00 66.00 545.00 33.00 545.00 0.00 Z" />
<path fill="#000000" d=" M 546.00 0.00 L 559.00 0.00 C 559.00 33.00 559.00 66.00 559.00 99.00 L 546.00 99.00 C 546.00 66.00 546.00 33.00 546.00 0.00 Z" />
<path fill="#ff6300" d=" M 559.00 0.00 L 560.00 0.00 C 560.00 33.00 560.00 66.00 560.00 99.00 L 559.00 99.00 C 559.00 66.00 559.00 33.00 559.00 0.00 Z" />
<path fill="#000000" d=" M 560.00 0.00 L 564.00 0.00 C 564.00 33.00 564.00 66.00 564.00 99.00 L 560.00 99.00 C 560.00 66.00 560.00 33.00 560.00 0.00 Z" />
<path fill="#ff5e00" d=" M 564.00 0.00 L 565.00 0.00 C 565.00 33.00 565.00 66.00 565.00 99.00 L 564.00 99.00 C 564.00 66.00 564.00 33.00 564.00 0.00 Z" />
<path fill="#000000" d=" M 565.00 0.00 L 566.00 0.00 C 566.00 33.00 566.00 66.00 566.00 99.00 L 565.00 99.00 C 565.00 66.00 565.00 33.00 565.00 0.00 Z" />
<path fill="#ff5e00" d=" M 566.00 0.00 L 567.00 0.00 C 567.00 33.00 567.00 66.00 567.00 99.00 L 566.00 99.00 C 566.00 66.00 566.00 33.00 566.00 0.00 Z" />
<path fill="#000000" d=" M 567.00 0.00 L 569.00 0.00 C 569.00 33.00 569.00 66.00 569.00 99.00 L 567.00 99.00 C 567.00 66.00 567.00 33.00 567.00 0.00 Z" />
<path fill="#ff5200" d=" M 569.00 0.00 L 570.00 0.00 C 570.00 33.00 570.00 66.00 570.00 99.00 L 569.00 99.00 C 569.00 66.00 569.00 33.00 569.00 0.00 Z" />
<path fill="#000000" d=" M 570.00 0.00 L 573.00 0.00 C 573.00 33.00 573.00 66.00 573.00 99.00 L 570.00 99.00 C 570.00 66.00 570.00 33.00 570.00 0.00 Z" />
<path fill="#ff4e00" d=" M 573.00 0.00 L 575.00 0.00 C 575.00 33.00 575.00 66.00 575.00 99.00 L 573.00 99.00 C 573.00 66.00 573.00 33.00 573.00 0.00 Z" />
<path fill="#000000" d=" M 575.00 0.00 L 610.00 0.00 C 610.00 33.00 610.00 66.00 610.00 99.00 L 575.00 99.00 C 575.00 66.00 575.00 33.00 575.00 0.00 Z" />
<path fill="#ff1000" d=" M 610.00 0.00 L 611.00 0.00 C 611.00 33.00 611.00 66.00 611.00 99.00 L 610.00 99.00 C 610.00 66.00 610.00 33.00 610.00 0.00 Z" />
<path fill="#000000" d=" M 611.00 0.00 L 612.00 0.00 C 612.00 33.00 612.00 66.00 612.00 99.00 L 611.00 99.00 C 611.00 66.00 611.00 33.00 611.00 0.00 Z" />
<path fill="#ff1000" d=" M 612.00 0.00 L 613.00 0.00 C 613.00 33.00 613.00 66.00 613.00 99.00 L 612.00 99.00 C 612.00 66.00 612.00 33.00 612.00 0.00 Z" />
<path fill="#000000" d=" M 613.00 0.00 L 615.00 0.00 C 615.00 33.00 615.00 66.00 615.00 99.00 L 613.00 99.00 C 613.00 66.00 613.00 33.00 613.00 0.00 Z" />
<path fill="#ff0e00" d=" M 615.00 0.00 L 616.00 0.00 C 616.00 33.00 616.00 66.00 616.00 99.00 L 615.00 99.00 C 615.00 66.00 615.00 33.00 615.00 0.00 Z" />
<path fill="#000000" d=" M 616.00 0.00 L 617.00 0.00 C 617.00 33.00 617.00 66.00 617.00 99.00 L 616.00 99.00 C 616.00 66.00 616.00 33.00 616.00 0.00 Z" />
<path fill="#ff0e00" d=" M 617.00 0.00 L 618.00 0.00 C 618.00 33.00 618.00 66.00 618.00 99.00 L 617.00 99.00 C 617.00 66.00 617.00 33.00 617.00 0.00 Z" />
<path fill="#000000" d=" M 618.00 0.00 L 620.00 0.00 C 620.00 33.00 620.00 66.00 620.00 99.00 L 618.00 99.00 C 618.00 66.00 618.00 33.00 618.00 0.00 Z" />
<path fill="#ff0d00" d=" M 620.00 0.00 L 621.00 0.00 C 621.00 33.00 621.00 66.00 621.00 99.00 L 620.00 99.00 C 620.00 66.00 620.00 33.00 620.00 0.00 Z" />
<path fill="#000000" d=" M 621.00 0.00 L 636.00 0.00 C 636.00 33.00 636.00 66.00 636.00 99.00 L 621.00 99.00 C 621.00 66.00 621.00 33.00 621.00 0.00 Z" />
<path fill="#f30000" d=" M 636.00 0.00 L 637.00 0.00 C 637.00 33.00 637.00 66.00 637.00 99.00 L 636.00 99.00 C 636.00 66.00 636.00 33.00 636.00 0.00 Z" />
<path fill="#000000" d=" M 637.00 0.00 L 649.00 0.00 C 649.00 33.00 649.00 66.00 649.00 99.00 L 637.00 99.00 C 637.00 66.00 637.00 33.00 637.00 0.00 Z" />
<path fill="#ef0000" d=" M 649.00 0.00 L 650.00 0.00 C 650.00 33.00 649.99 66.00 650.00 99.00 L 649.00 99.00 C 649.00 66.00 649.00 33.00 649.00 0.00 Z" />
<path fill="#000000" d=" M 650.00 0.00 L 661.00 0.00 C 661.00 33.00 661.00 66.00 661.00 99.00 L 650.00 99.00 C 649.99 66.00 650.00 33.00 650.00 0.00 Z" />
<path fill="#df0000" d=" M 661.00 0.00 L 662.00 0.00 C 662.00 33.00 661.99 66.00 662.00 99.00 L 661.00 99.00 C 661.00 66.00 661.00 33.00 661.00 0.00 Z" />
<path fill="#000000" d=" M 662.00 0.00 L 683.00 0.00 C 683.00 33.00 683.00 66.00 683.00 99.00 L 662.00 99.00 C 661.99 66.00 662.00 33.00 662.00 0.00 Z" />
<path fill="#d60000" d=" M 683.00 0.00 L 684.00 0.00 C 683.99 33.00 684.00 66.00 684.00 99.00 L 683.00 99.00 C 683.00 66.00 683.00 33.00 683.00 0.00 Z" />
<path fill="#000000" d=" M 684.00 0.00 L 728.00 0.00 C 727.99 33.00 728.00 66.00 728.00 99.00 L 684.00 99.00 C 684.00 66.00 683.99 33.00 684.00 0.00 Z" />
<path fill="#b00000" d=" M 728.00 0.00 L 729.00 0.00 C 729.00 33.00 729.00 66.00 729.00 99.00 L 728.00 99.00 C 728.00 66.00 727.99 33.00 728.00 0.00 Z" />
<path fill="#000000" d=" M 729.00 0.00 L 751.00 0.00 C 751.00 33.00 751.00 66.00 751.00 99.00 L 729.00 99.00 C 729.00 66.00 729.00 33.00 729.00 0.00 Z" />
<path fill="#a50000" d=" M 751.00 0.00 L 752.00 0.00 C 752.00 33.00 752.00 66.00 752.00 99.00 L 751.00 99.00 C 751.00 66.00 751.00 33.00 751.00 0.00 Z" />
<path fill="#000000" d=" M 752.00 0.00 L 757.00 0.00 L 757.00 99.00 L 752.00 99.00 C 752.00 66.00 752.00 33.00 752.00 0.00 Z" />
</svg>
