<?xml version="1.0" encoding="UTF-8" standalone="no"?>
<!-- Created with Inkscape (http://www.inkscape.org/) -->

<svg
   xmlns:svg="http://www.w3.org/2000/svg"
   xmlns="http://www.w3.org/2000/svg"
   xmlns:xlink="http://www.w3.org/1999/xlink"
   version="1.1"
   width="204.58574"
   height="311.72879"
   id="svg1901">
  <defs
     id="defs1903" />
  <g
     transform="translate(-139.85,-602.21218)"
     id="layer1">
    <path
       d="m 275.12761,826.57106 0,-77.14286 -15,0 22.20278,-23.57143 22.22579,23.4885 -14.42857,0 0,77.35079 14.42857,0 -22.05358,21.39285 -20.94642,-21.51785 13.57143,0 z"
       id="path6729"
       style="fill:#fcaf3e;stroke:#000000;stroke-width:1px;stroke-linecap:butt;stroke-linejoin:miter;stroke-opacity:1" />
    <g
       transform="translate(4e-7,1.7677669)"
       id="g6106">
      <g
         transform="matrix(0.70771776,0,0,0.70771776,196.95365,204.01464)"
         id="g4924">
        <path
           d="m 85.714285,878.43359 a 8.9285717,8.9285717 0 1 1 -17.857144,0 8.9285717,8.9285717 0 1 1 17.857144,0 z"
           transform="translate(2,2)"
           id="path4922"
           style="fill:#000000;fill-opacity:1;stroke:none" />
        <path
           d="m 85.714285,878.43359 a 8.9285717,8.9285717 0 1 1 -17.857144,0 8.9285717,8.9285717 0 1 1 17.857144,0 z"
           transform="translate(0.71428572,3.2857143)"
           id="path4920"
           style="fill:#eeeeec;stroke:#000000;stroke-width:0.4238978;stroke-miterlimit:4;stroke-opacity:1;stroke-dasharray:none" />
      </g>
      <use
         transform="translate(1.7304828,-1.6420157)"
         id="use5568"
         x="0"
         y="0"
         width="744.09448"
         height="1052.3622"
         xlink:href="#g4924" />
      <use
         transform="matrix(1.01,0,0,1.01,-2.5532908,-8.1564918)"
         id="use5570"
         x="0"
         y="0"
         width="744.09448"
         height="1052.3622"
         xlink:href="#g4924" />
      <use
         transform="matrix(1.02,0,0,1.02,-6.8370642,-14.670966)"
         id="use5572"
         x="0"
         y="0"
         width="744.09448"
         height="1052.3622"
         xlink:href="#g4924" />
      <use
         transform="matrix(1.03,0,0,1.03,-11.120837,-21.185442)"
         id="use5574"
         x="0"
         y="0"
         width="744.09448"
         height="1052.3622"
         xlink:href="#g4924" />
      <use
         transform="matrix(1.04,0,0,1.04,-15.404611,-27.699917)"
         id="use5576"
         x="0"
         y="0"
         width="744.09448"
         height="1052.3622"
         xlink:href="#g4924" />
    </g>
    <use
       transform="matrix(1.18,0,0,1.18,-77.377441,-116.90255)"
       id="use5604"
       x="0"
       y="0"
       width="744.09448"
       height="1052.3622"
       xlink:href="#g4924" />
    <use
       transform="matrix(1.19,0,0,1.19,-81.661214,-123.41702)"
       id="use5606"
       x="0"
       y="0"
       width="744.09448"
       height="1052.3622"
       xlink:href="#g4924" />
    <use
       transform="matrix(1.2,0,0,1.2,-85.944988,-129.9315)"
       id="use5608"
       x="0"
       y="0"
       width="744.09448"
       height="1052.3622"
       xlink:href="#g4924" />
    <use
       transform="matrix(1.21,0,0,1.21,-90.228762,-136.44599)"
       id="use5610"
       x="0"
       y="0"
       width="744.09448"
       height="1052.3622"
       xlink:href="#g4924" />
    <use
       transform="matrix(1.22,0,0,1.22,-94.512536,-142.96046)"
       id="use5612"
       x="0"
       y="0"
       width="744.09448"
       height="1052.3622"
       xlink:href="#g4924" />
    <g
       transform="translate(30.304576,-109.09647)"
       id="g4358">
      <path
         d="m 197.78125,730.1875 c -7.69408,-0.0397 -15.64445,0.27082 -23.15625,2.71875 l -0.0312,0 -0.0312,0.0312 c -0.98516,0.39974 -2.23493,0.87593 -3.34375,1.625 -1.10882,0.74907 -2.12098,1.86258 -2.3125,3.4375 l 0,0.125 0,0.125 c 0.1945,1.57332 1.20437,2.68815 2.3125,3.4375 1.10813,0.74935 2.3584,1.22425 3.34375,1.625 l 0.0312,0 0.0312,0.0312 c 7.50946,2.45285 15.46502,2.7581 23.15625,2.71875 9.57016,-0.24823 19.46601,-1.335 28.375,-5.5 l 0.0312,0 0.0312,-0.0312 c 0.59648,-0.32092 1.25288,-0.8241 1.90625,-1.21875 0.26617,0.1934 0.60708,0.3228 0.84375,0.53125 1.04737,0.92249 1.75977,1.93622 1.875,3.25 l 1.96875,-0.1875 c -0.16983,-1.93618 -1.21693,-3.43241 -2.5,-4.5625 -0.10712,-0.0943 -0.2336,-0.12866 -0.34375,-0.21875 0.11105,-0.0904 0.23572,-0.12408 0.34375,-0.21875 1.2894,-1.12991 2.34768,-2.65045 2.5,-4.59375 l -1.96875,-0.15625 c -0.10227,1.30485 -0.78979,2.3264 -1.84375,3.25 -0.23674,0.20746 -0.57781,0.33858 -0.84375,0.53125 -0.66386,-0.40247 -1.32397,-0.92346 -1.9375,-1.25 l -0.0312,0 -0.0312,0 c -8.9069,-4.16105 -18.80584,-5.25346 -28.375,-5.5 l 0,5e-5 z m 27.4688,7.28125 c 0.0211,0.01 0.0414,0.0214 0.0625,0.0312 0.33658,0.1794 0.62719,0.43282 0.96875,0.625 -0.33944,0.19156 -0.63623,0.44593 -0.96875,0.625 -0.009,0.004 -0.0224,-0.004 -0.0312,0 -0.0124,0.007 -0.0188,0.0246 -0.0312,0.0312 -8.49771,3.95588 -18.06941,5.03664 -27.5,5.28125 -7.60498,0.0389 -15.29489,-0.27391 -22.4375,-2.59375 -0.0215,-0.009 -0.0409,-0.0225 -0.0625,-0.0312 -0.99874,-0.40566 -2.08731,-0.85246 -2.90625,-1.40625 -0.78844,-0.53316 -1.22964,-1.10828 -1.375,-1.90625 0.14292,-0.79968 0.58538,-1.37282 1.375,-1.90625 0.81895,-0.55324 1.90751,-1.00154 2.90625,-1.40625 0.0216,-0.009 0.041,-0.0225 0.0625,-0.0312 7.59309,-2.31583 12.95576,-2.70694 22.4375,-2.93557 12.81521,0.38428 18.70798,1.947 27.4999,5.62307 z"
         id="path4032"
         style="font-size:medium;font-style:normal;font-variant:normal;font-weight:normal;font-stretch:normal;text-indent:0;text-align:start;text-decoration:none;line-height:normal;letter-spacing:normal;word-spacing:normal;text-transform:none;direction:ltr;block-progression:tb;writing-mode:lr-tb;text-anchor:start;color:#000000;fill:#000000;fill-opacity:1;stroke:none;stroke-width:2;marker:none;visibility:visible;display:inline;overflow:visible;enable-background:accumulate;font-family:Bitstream Vera Sans;-inkscape-font-specification:Bitstream Vera Sans" />
      <use
         id="use4318"
         x="0"
         y="0"
         width="744.09448"
         height="1052.3622"
         xlink:href="#path4032" />
      <use
         transform="translate(0,9.5286588)"
         id="use4320"
         x="0"
         y="0"
         width="744.09448"
         height="1052.3622"
         xlink:href="#path4032" />
      <use
         transform="translate(0,19.057318)"
         id="use4322"
         x="0"
         y="0"
         width="744.09448"
         height="1052.3622"
         xlink:href="#path4032" />
      <use
         transform="translate(0,28.585976)"
         id="use4324"
         x="0"
         y="0"
         width="744.09448"
         height="1052.3622"
         xlink:href="#path4032" />
      <use
         transform="translate(0,38.114635)"
         id="use4326"
         x="0"
         y="0"
         width="744.09448"
         height="1052.3622"
         xlink:href="#path4032" />
      <use
         transform="translate(0,47.643294)"
         id="use4328"
         x="0"
         y="0"
         width="744.09448"
         height="1052.3622"
         xlink:href="#path4032" />
      <use
         transform="translate(0,57.171953)"
         id="use4330"
         x="0"
         y="0"
         width="744.09448"
         height="1052.3622"
         xlink:href="#path4032" />
      <use
         transform="translate(0,66.700612)"
         id="use4332"
         x="0"
         y="0"
         width="744.09448"
         height="1052.3622"
         xlink:href="#path4032" />
      <use
         transform="translate(0,76.22927)"
         id="use4334"
         x="0"
         y="0"
         width="744.09448"
         height="1052.3622"
         xlink:href="#path4032" />
      <use
         transform="translate(0,85.757929)"
         id="use4336"
         x="0"
         y="0"
         width="744.09448"
         height="1052.3622"
         xlink:href="#path4032" />
      <use
         transform="translate(0,95.286588)"
         id="use4338"
         x="0"
         y="0"
         width="744.09448"
         height="1052.3622"
         xlink:href="#path4032" />
      <use
         transform="translate(0,104.81525)"
         id="use4340"
         x="0"
         y="0"
         width="744.09448"
         height="1052.3622"
         xlink:href="#path4032" />
      <use
         transform="translate(0,114.34391)"
         id="use4342"
         x="0"
         y="0"
         width="744.09448"
         height="1052.3622"
         xlink:href="#path4032" />
      <use
         transform="translate(0,123.87256)"
         id="use4344"
         x="0"
         y="0"
         width="744.09448"
         height="1052.3622"
         xlink:href="#path4032" />
      <use
         transform="translate(0,133.40122)"
         id="use4346"
         x="0"
         y="0"
         width="744.09448"
         height="1052.3622"
         xlink:href="#path4032" />
      <use
         transform="translate(0,142.92988)"
         id="use4348"
         x="0"
         y="0"
         width="744.09448"
         height="1052.3622"
         xlink:href="#path4032" />
      <use
         transform="translate(0,152.45854)"
         id="use4350"
         x="0"
         y="0"
         width="744.09448"
         height="1052.3622"
         xlink:href="#path4032" />
      <use
         transform="translate(0,161.9872)"
         id="use4352"
         x="0"
         y="0"
         width="744.09448"
         height="1052.3622"
         xlink:href="#path4032" />
      <use
         transform="translate(0,171.51586)"
         id="use4354"
         x="0"
         y="0"
         width="744.09448"
         height="1052.3622"
         xlink:href="#path4032" />
      <use
         transform="translate(0,181.04452)"
         id="use4356"
         x="0"
         y="0"
         width="744.09448"
         height="1052.3622"
         xlink:href="#path4032" />
    </g>
    <g
       transform="matrix(0.82671833,0,0,0.82671833,155.48294,157.21459)"
       id="g6098">
      <path
         d="m 115.49086,812.42306 c 6.24195,5.57386 6.73907,14.83961 0.95715,20.88932 l -16.760122,17.53641 c -2.679275,2.80337 -1.260772,-13.03471 -4.381743,-15.82164 -3.120974,-2.78693 -20.526205,-1.94801 -17.793384,-4.69921 l 16.583699,-16.6952 c 5.897476,-5.93713 15.15246,-6.78354 21.3944,-1.20968 z"
         id="path6100"
         style="fill:#000000;fill-opacity:1;stroke:#000000;stroke-width:0.30000001;stroke-miterlimit:4;stroke-opacity:1" />
      <path
         d="m 104.55079,839.7251 a 15.152288,15.152288 0 1 1 -30.30458,0 15.152288,15.152288 0 1 1 30.30458,0 z"
         id="path6102"
         style="fill:#555753;fill-opacity:1;stroke:#000000;stroke-width:0.30000001;stroke-miterlimit:4;stroke-opacity:1;stroke-dasharray:none" />
      <path
         d="m 84.764296,824.82531 c 14.542027,-16.93302 16.847984,-14.51335 17.803934,-15.60348 -18.934408,18.53331 -15.150177,13.7671 -17.803934,15.60348 z"
         id="path6104"
         style="fill:#eeeeec;stroke:none" />
    </g>
    <path
       d="m 262.13459,814.34499 c -0.63135,7.57614 -32.09265,-10.35316 -32.09265,0.56599 l 0,31.21764"
       id="path4404"
       style="fill:none;stroke:#000000;stroke-width:2;stroke-linecap:butt;stroke-linejoin:miter;stroke-miterlimit:4;stroke-opacity:1;stroke-dasharray:none" />
    <g
       transform="matrix(0.82671833,0,0,0.82671833,138.56289,173.43794)"
       id="g6051">
      <path
         d="m 115.49086,812.42306 c 6.24195,5.57386 6.73907,14.83961 0.95715,20.88932 l -16.760122,17.53641 c -2.679275,2.80337 -1.260772,-13.03471 -4.381743,-15.82164 -3.120974,-2.78693 -20.526205,-1.94801 -17.793384,-4.69921 l 16.583699,-16.6952 c 5.897476,-5.93713 15.15246,-6.78354 21.3944,-1.20968 z"
         id="path6025"
         style="fill:#000000;fill-opacity:1;stroke:#000000;stroke-width:0.30000001;stroke-miterlimit:4;stroke-opacity:1" />
      <path
         d="m 104.55079,839.7251 a 15.152288,15.152288 0 1 1 -30.30458,0 15.152288,15.152288 0 1 1 30.30458,0 z"
         id="path6023"
         style="fill:#555753;fill-opacity:1;stroke:#000000;stroke-width:0.30000001;stroke-miterlimit:4;stroke-opacity:1;stroke-dasharray:none" />
      <path
         d="m 84.764296,824.82531 c 14.542027,-16.93302 16.847984,-14.51335 17.803934,-15.60348 -18.934408,18.53331 -15.150177,13.7671 -17.803934,15.60348 z"
         id="path6047"
         style="fill:#eeeeec;stroke:none" />
    </g>
    <path
       d="m 304.83821,854.99167 c 0,0 -46.63372,10.76523 -46.63372,10.76523 0,0 16.64843,3.94304 16.64843,3.94304 -18.43281,15.21983 -62.37286,23.65681 -83.36005,13.10704 -17.06124,-8.57629 -26.79742,-22.56307 -12.78589,-34.35468 0,0 15.39968,3.66122 15.39968,3.66122 0,0 0.35857,-19.13906 0.35857,-19.13906 0,0 -43.53287,8.90762 -43.53287,8.90762 0,0 13.71204,3.25932 13.71204,3.25932 -16.33793,13.21464 -11.43928,36.90323 14.71634,49.94884 31.02977,15.47669 88.52338,4.66665 115.8711,-20.58738 0,0 19.78724,4.69059 19.78724,4.69059 0,0 -10.18087,-24.20178 -10.18087,-24.20178 0,0 0,0 0,0"
       id="path6186"
       style="fill:#fce94f;fill-opacity:1;stroke:#000000;stroke-opacity:1" />
    <g
       transform="translate(-2,2)"
       id="g6089">
      <use
         transform="matrix(1.23,0,0,1.23,-96.796308,-151.47492)"
         id="use5614"
         x="0"
         y="0"
         width="744.09448"
         height="1052.3622"
         xlink:href="#g4924" />
      <use
         transform="matrix(1.24,0,0,1.24,-101.08008,-157.98939)"
         id="use5616"
         x="0"
         y="0"
         width="744.09448"
         height="1052.3622"
         xlink:href="#g4924" />
      <use
         transform="matrix(1.25,0,0,1.25,-105.36386,-164.50388)"
         id="use5618"
         x="0"
         y="0"
         width="744.09448"
         height="1052.3622"
         xlink:href="#g4924" />
      <use
         transform="matrix(1.26,0,0,1.26,-109.64763,-171.01835)"
         id="use5620"
         x="0"
         y="0"
         width="744.09448"
         height="1052.3622"
         xlink:href="#g4924" />
      <use
         transform="matrix(1.27,0,0,1.27,-113.9314,-177.53282)"
         id="use5622"
         x="0"
         y="0"
         width="744.09448"
         height="1052.3622"
         xlink:href="#g4924" />
      <use
         transform="matrix(1.28,0,0,1.28,-118.21518,-184.04732)"
         id="use5624"
         x="0"
         y="0"
         width="744.09448"
         height="1052.3622"
         xlink:href="#g4924" />
      <use
         transform="matrix(1.29,0,0,1.29,-122.49895,-190.56178)"
         id="use5626"
         x="0"
         y="0"
         width="744.09448"
         height="1052.3622"
         xlink:href="#g4924" />
    </g>
    <path
       d="m 85.714285,878.43359 a 8.9285717,8.9285717 0 1 1 -17.857144,0 8.9285717,8.9285717 0 1 1 17.857144,0 z"
       transform="matrix(0.90617475,0,0,0.90617475,130.67758,83.683161)"
       id="path6150"
       style="fill:#888a85;stroke:#000000;stroke-width:0.4238978;stroke-miterlimit:4;stroke-opacity:1;stroke-dasharray:none" />
    <path
       d="m 200.96875,616.84375 c -2.82332,0 -5.09375,2.30168 -5.09375,5.125 0,2.82332 2.27043,5.125 5.09375,5.125 0.0207,0 0.0419,2.5e-4 0.0625,0 l 132.8125,0 0,-10.09375 -131.71875,0 c -0.37101,-0.0856 -0.75922,-0.15625 -1.15625,-0.15625 z"
       id="path6160"
       style="fill:#000000;fill-opacity:1;stroke:#000000;stroke-width:0.26403624;stroke-miterlimit:4;stroke-opacity:1;stroke-dasharray:none" />
    <path
       d="m 202.03051,620.52197 c -16.78772,-1.09875 85.11729,-2.18864 146.33253,0 -2.55205,-0.8141 -76.75184,0.91203 -146.33253,0 z"
       id="path6163"
       style="fill:#eeeeec;stroke:none" />
  </g>
</svg>
